<?xml version="1.0" standalone="no"?>
<!DOCTYPE svg PUBLIC "-//W3C//DTD SVG 20010904//EN"
 "http://www.w3.org/TR/2001/REC-SVG-20010904/DTD/svg10.dtd">
<svg version="1.0" xmlns="http://www.w3.org/2000/svg"
 width="268.000000pt" height="268.000000pt" viewBox="0 0 268.000000 268.000000"
 preserveAspectRatio="xMidYMid meet">
<metadata>
Created by potrace 1.11, written by Peter Selinger 2001-2013
</metadata>
<g transform="translate(0.000000,268.000000) scale(0.100000,-0.100000)"
fill="#000000" stroke="none">
<path d="M1248 2605 c-103 -27 -194 -100 -246 -199 -24 -45 -27 -62 -27 -146
0 -89 2 -100 38 -174 20 -43 37 -80 37 -82 0 -1 -36 -23 -80 -48 -81 -47 -160
-118 -185 -167 -19 -37 -31 -139 -17 -147 5 -4 86 -9 178 -10 93 -2 173 -6
178 -9 8 -6 3 -149 -8 -208 -37 -192 -115 -381 -247 -600 -67 -110 -86 -129
-148 -149 -183 -59 -288 -165 -325 -327 -19 -82 -27 -175 -20 -216 l6 -33 953
0 c915 0 953 1 957 18 7 27 0 148 -13 212 -17 81 -52 152 -100 205 -69 75
-105 96 -268 156 -43 16 -116 127 -212 319 -73 146 -118 271 -143 392 -20 95
-21 227 -3 233 6 2 87 5 179 7 91 2 170 6 173 10 12 12 9 51 -9 111 -21 72
-95 148 -195 201 -39 20 -73 41 -77 47 -3 6 11 44 32 86 36 71 39 81 39 167 0
77 -4 99 -26 146 -73 155 -261 247 -421 205z"/>
</g>
</svg>
