<?xml version="1.0"?>

<!DOCTYPE svg PUBLIC '-//W3C//DTD SVG 1.0//EN' 'http://www.w3.org/TR/2001/REC-SVG-20010904/DTD/svg10.dtd'>
<svg fill-opacity="1" xmlns:xlink="http://www.w3.org/1999/xlink" color-rendering="auto" color-interpolation="auto" text-rendering="auto" stroke="black" stroke-linecap="square" stroke-miterlimit="10" shape-rendering="auto" stroke-opacity="1" fill="black" stroke-dasharray="none" font-weight="normal" stroke-width="1" xmlns="http://www.w3.org/2000/svg" font-family="&apos;Dialog&apos;" font-style="normal" stroke-linejoin="miter" font-size="12" stroke-dashoffset="0" image-rendering="auto">
  <!--Unicode Character 'WHITE CHESS BISHOP' (U+2657)-->
  <defs id="genericDefs" />
  <g>
    <g>
      <path d="M262.9688 415.5469 L231.3281 415.5469 Q231.3281 410.625 223.1719 410.625 Q221.3438 410.625 209.1094 412.1719 Q188.2969 414.7031 183.2344 414.7031 Q167.2031 414.7031 156.4453 407.8125 Q145.6875 400.9219 143.4375 389.1094 Q141.1875 400.9219 130.4297 407.8125 Q119.6719 414.7031 103.6406 414.7031 Q98.5781 414.7031 77.7656 412.1719 Q65.3906 410.625 63.7031 410.625 Q55.5469 410.625 55.5469 415.5469 L23.9062 415.5469 L23.9062 408.6562 Q23.9062 401.9062 29.1094 394.875 Q34.3125 387.8438 44.7891 383.6953 Q55.2656 379.5469 70.3125 379.5469 Q77.0625 379.5469 89.2969 381.375 Q97.7344 382.6406 101.1094 382.6406 Q109.6875 382.6406 113.625 380.6016 Q117.5625 378.5625 122.625 370.9688 Q103.7812 367.875 97.5938 361.4062 L97.5938 324.8438 Q77.7656 310.9219 77.7656 289.4062 Q77.7656 278.4375 83.25 269.5078 Q88.7344 260.5781 96.6094 253.8281 L136.2656 220.2188 Q123.8906 214.875 123.8906 201.7969 Q123.8906 193.6406 129.5859 187.9453 Q135.2812 182.25 143.4375 182.25 Q151.5938 182.25 157.2891 187.9453 Q162.9844 193.6406 162.9844 201.7969 Q162.9844 214.875 150.6094 220.2188 Q187.875 251.7188 194.4844 257.9062 Q201.0938 264.0938 205.1016 272.3203 Q209.1094 280.5469 209.1094 289.4062 Q209.1094 310.9219 189.2812 324.8438 L189.2812 361.4062 Q182.9531 367.875 164.1094 370.9688 Q169.3125 378.5625 173.25 380.6016 Q177.1875 382.6406 185.7656 382.6406 Q189 382.6406 197.5781 381.375 Q209.8125 379.5469 216.5625 379.5469 Q239.2031 379.5469 251.0859 388.5469 Q262.9688 397.5469 262.9688 408.6562 L262.9688 415.5469 ZM143.4375 212.7656 Q147.9375 212.7656 151.1719 209.5312 Q154.4062 206.2969 154.4062 201.7969 Q154.4062 197.2969 151.1719 194.1328 Q147.9375 190.9688 143.4375 190.9688 Q138.9375 190.9688 135.7031 194.1328 Q132.4688 197.2969 132.4688 201.7969 Q132.4688 206.2969 135.7031 209.5312 Q138.9375 212.7656 143.4375 212.7656 ZM181.4062 319.9219 Q190.125 316.6875 195.6094 308.1094 Q201.0938 299.5312 201.0938 289.4062 Q201.0938 274.2188 181.5469 257.2734 Q162 240.3281 143.4375 223.4531 L114.6094 249.0469 Q99.1406 262.6875 95.2031 267.2578 Q91.2656 271.8281 88.5234 277.9453 Q85.7812 284.0625 85.7812 289.4062 Q85.7812 299.5312 91.2656 308.1094 Q96.75 316.6875 105.4688 319.9219 Q129.2344 313.5938 143.4375 313.5938 Q157.5 313.5938 181.4062 319.9219 ZM164.6719 282.7969 L147.5156 282.7969 L147.5156 300.0938 L139.3594 300.0938 L139.3594 282.7969 L122.0625 282.7969 L122.0625 274.6406 L139.3594 274.6406 L139.3594 257.4844 L147.5156 257.4844 L147.5156 274.6406 L164.6719 274.6406 L164.6719 282.7969 ZM181.125 353.6719 L181.125 346.0781 L174.2344 338.3438 L181.125 333.7031 L181.125 327.9375 Q162.5625 321.6094 143.4375 321.6094 Q124.3125 321.6094 105.75 327.9375 L105.75 333.7031 L112.6406 338.3438 L105.75 346.0781 L105.75 353.6719 Q118.5469 349.0312 143.4375 349.0312 Q168.3281 349.0312 181.125 353.6719 ZM154.9688 334.9688 L143.4375 342.4219 L131.9062 334.9688 L143.4375 327.375 L154.9688 334.9688 ZM176.4844 360.2812 Q168.4688 357.0469 143.4375 357.0469 Q118.2656 357.0469 110.25 360.2812 Q120.9375 364.7812 143.4375 364.7812 Q165.7969 364.7812 176.4844 360.2812 ZM254.8125 407.5312 Q250.3125 387.5625 217.4062 387.5625 Q212.9062 387.5625 200.8125 389.25 Q189.2812 390.7969 185.2031 390.7969 Q174.2344 390.7969 168.1875 386.0859 Q162.1406 381.375 156.0938 371.8125 L147.5156 371.8125 Q147.5156 406.5469 183.2344 406.5469 Q187.4531 406.5469 207.1406 404.2969 Q221.0625 402.6094 223.1719 402.6094 Q231.0469 402.6094 235.8281 407.5312 L254.8125 407.5312 ZM139.3594 371.8125 L130.7812 371.8125 Q124.7344 381.375 118.6172 386.0859 Q112.5 390.7969 101.6719 390.7969 Q97.5938 390.7969 86.0625 389.25 Q73.9688 387.5625 69.4688 387.5625 Q36.5625 387.5625 31.9219 407.5312 L50.9062 407.5312 Q55.8281 402.6094 63.7031 402.6094 Q65.8125 402.6094 79.7344 404.2969 Q99.2812 406.5469 103.6406 406.5469 Q139.3594 406.5469 139.3594 371.8125 Z" stroke="none" />
    </g>
  </g>
</svg>
