<?xml version="1.0"?>

<!DOCTYPE svg PUBLIC '-//W3C//DTD SVG 1.0//EN' 'http://www.w3.org/TR/2001/REC-SVG-20010904/DTD/svg10.dtd'>
<svg fill-opacity="1" xmlns:xlink="http://www.w3.org/1999/xlink" color-rendering="auto" color-interpolation="auto" text-rendering="auto" stroke="black" stroke-linecap="square" stroke-miterlimit="10" shape-rendering="auto" stroke-opacity="1" fill="black" stroke-dasharray="none" font-weight="normal" stroke-width="1" xmlns="http://www.w3.org/2000/svg" font-family="&apos;Dialog&apos;" font-style="normal" stroke-linejoin="miter" font-size="12" stroke-dashoffset="0" image-rendering="auto">
  <!--Unicode Character 'WHITE CHESS KING' (U+2654)-->
  <defs id="genericDefs" />
  <g>
    <g>
      <path d="M174.2344 253.4062 Q189.8438 236.9531 216.2812 236.9531 Q236.8125 236.9531 249.8906 248.9062 Q262.9688 260.8594 262.9688 279.2812 Q262.9688 315 221.2031 337.7812 L221.2031 393.0469 Q221.2031 404.2969 196.3125 411.9609 Q171.4219 419.625 143.4375 419.625 Q115.3125 419.625 90.4922 411.9609 Q65.6719 404.2969 65.6719 393.0469 L65.6719 337.7812 Q23.9062 315 23.9062 279.2812 Q23.9062 260.8594 36.9844 248.9062 Q50.0625 236.9531 70.5938 236.9531 Q96.8906 236.9531 112.6406 253.4062 Q120.5156 239.4844 133.3125 234.4219 L115.7344 234.4219 L115.7344 181.6875 L171.1406 181.6875 L171.1406 234.4219 L153.5625 234.4219 Q166.3594 239.4844 174.2344 253.4062 ZM156.0938 189.7031 L130.7812 189.7031 L143.4375 202.3594 L156.0938 189.7031 ZM162.9844 222.0469 L162.9844 194.3438 L149.2031 208.125 L162.9844 222.0469 ZM137.6719 208.125 L123.8906 194.3438 L123.8906 222.0469 L137.6719 208.125 ZM156.0938 226.5469 L143.4375 213.8906 L130.7812 226.5469 L156.0938 226.5469 ZM167.9062 259.1719 Q164.5312 251.0156 157.5 245.3203 Q150.4688 239.625 143.4375 239.625 Q136.4062 239.625 129.375 245.3203 Q122.3438 251.0156 118.9688 259.1719 Q124.875 264.9375 132.5391 279.2812 Q140.2031 293.625 143.4375 306.1406 Q146.6719 293.625 154.2656 279.2812 Q161.8594 264.9375 167.9062 259.1719 ZM214.5938 332.2969 Q233.5781 322.875 244.1953 308.8828 Q254.8125 294.8906 254.8125 279.2812 Q254.8125 263.6719 244.1953 254.3906 Q233.5781 245.1094 216.2812 245.1094 Q169.4531 245.1094 150.0469 313.5938 Q191.3906 315.4219 214.5938 332.2969 ZM136.8281 313.5938 Q117.4219 245.1094 70.5938 245.1094 Q53.2969 245.1094 42.6094 254.4609 Q31.9219 263.8125 31.9219 279.2812 Q31.9219 294.8906 42.6094 308.8828 Q53.2969 322.875 72.2812 332.2969 Q95.3438 315.4219 136.8281 313.5938 ZM213.1875 376.5938 L213.1875 370.2656 L202.2188 353.3906 L213.1875 346.6406 L213.1875 342.4219 Q206.0156 333 186.6797 327.3047 Q167.3438 321.6094 143.4375 321.6094 Q119.5312 321.6094 100.1953 327.3047 Q80.8594 333 73.6875 342.4219 L73.6875 346.6406 L84.6562 353.3906 L73.6875 370.2656 L73.6875 376.5938 Q102.375 360.8438 143.4375 360.8438 Q184.5 360.8438 213.1875 376.5938 ZM161.2969 340.0312 L143.4375 352.6875 L125.5781 340.0312 L143.4375 328.7812 L161.2969 340.0312 ZM143.4375 411.4688 Q164.3906 411.4688 188.7891 404.7891 Q213.1875 398.1094 213.1875 390.2344 Q213.1875 383.2031 191.0391 376.0312 Q168.8906 368.8594 143.4375 368.8594 Q117.9844 368.8594 95.8359 376.0312 Q73.6875 383.2031 73.6875 390.2344 Q73.6875 398.1094 98.0859 404.7891 Q122.4844 411.4688 143.4375 411.4688 Z" stroke="none" />
    </g>
  </g>
</svg>
