<?xml version="1.0"?>

<!DOCTYPE svg PUBLIC '-//W3C//DTD SVG 1.0//EN' 'http://www.w3.org/TR/2001/REC-SVG-20010904/DTD/svg10.dtd'>
<svg fill-opacity="1" xmlns:xlink="http://www.w3.org/1999/xlink" color-rendering="auto" color-interpolation="auto" text-rendering="auto" stroke="black" stroke-linecap="square" stroke-miterlimit="10" shape-rendering="auto" stroke-opacity="1" fill="black" stroke-dasharray="none" font-weight="normal" stroke-width="1" xmlns="http://www.w3.org/2000/svg" font-family="&apos;Dialog&apos;" font-style="normal" stroke-linejoin="miter" font-size="12" stroke-dashoffset="0" image-rendering="auto">
  <!--Unicode Character 'BLACK CHESS KNIGHT' (U+265E)-->
  <defs id="genericDefs" />
  <g>
    <g>
      <path d="M262.6875 417.5156 L88.7344 417.5156 Q88.7344 391.2188 95.3438 377.1562 Q101.9531 363.0938 118.6875 353.3906 Q139.9219 341.1562 139.9219 322.4531 Q139.9219 318.2344 137.1094 313.875 Q129.6562 319.9219 97.3125 327.6562 Q86.0625 330.8906 83.5312 349.3125 Q82.125 358.0312 77.8359 362.8828 Q73.5469 367.7344 67.6406 367.7344 Q62.0156 367.7344 57.9375 366.6094 Q57.9375 359.1562 59.4141 355.0781 Q60.8906 351 64.5469 346.6406 Q68.4844 341.2969 68.4844 337.2188 Q68.4844 332.0156 63.7031 332.0156 Q59.9062 332.0156 53.2969 344.8125 Q45.7031 359.7188 43.7344 360 Q21.9375 347.2031 21.9375 327.9375 Q21.9375 316.125 38.25 294.3281 Q50.0625 278.4375 53.2969 272.1094 Q56.5312 265.7812 57.6562 256.5 Q58.7812 246.375 60.1172 242.2266 Q61.4531 238.0781 66.2344 230.9062 Q72.5625 221.625 74.1797 215.0156 Q75.7969 208.4062 75.7969 197.0156 L75.7969 179.4375 Q89.0156 185.2031 101.3906 206.4375 L108.8438 206.1562 Q114.1875 196.7344 116.8594 176.4844 Q126.7031 180.9844 134.8594 193.5703 Q143.0156 206.1562 146.25 211.0781 Q206.7188 218.8125 234.7031 255.7266 Q262.6875 292.6406 262.6875 381.2344 L262.6875 417.5156 ZM107.4375 215.4375 Q102.0938 215.4375 96.1172 218.5312 Q90.1406 221.625 89.2969 227.25 Q93.2344 227.25 98.7891 225.4922 Q104.3438 223.7344 105.5391 221.0625 Q106.7344 218.3906 107.4375 215.4375 ZM248.2031 409.5 L248.2031 387 Q248.2031 315.2812 233.7188 281.6016 Q219.2344 247.9219 193.6406 234.3516 Q168.0469 220.7812 152.2969 220.7812 Q146.5312 220.7812 146.5312 225.1406 Q146.5312 226.5469 147.7969 228.0234 Q149.0625 229.5 150.3281 229.7812 Q189 239.4844 208.125 271.0547 Q227.25 302.625 227.25 366.8906 Q227.25 384.3281 223.1719 409.5 L248.2031 409.5 ZM103.6406 254.5312 L102.5156 252 L96.1875 252 Q91.4062 252 84.0234 256.9922 Q76.6406 261.9844 76.6406 266.9062 Q76.6406 270.4219 83.25 275.625 L83.25 269.5781 L84.375 267.75 L90.4219 268.5938 Q95.3438 266.0625 95.3438 264.0938 L94.7812 258.6094 Q98.2969 255.7969 103.6406 254.5312 ZM46.125 318.7969 Q41.7656 318.7969 38.8828 321.6797 Q36 324.5625 36 328.7812 Q36 335.5312 40.3594 335.5312 Q42.4688 335.5312 44.1562 333.9844 Q45.8438 332.4375 45.8438 330.0469 L41.7656 325.125 Q45 322.5938 46.125 318.7969 Z" stroke="none" />
    </g>
  </g>
</svg>
