<?xml version="1.0"?>

<!DOCTYPE svg PUBLIC '-//W3C//DTD SVG 1.0//EN' 'http://www.w3.org/TR/2001/REC-SVG-20010904/DTD/svg10.dtd'>
<svg fill-opacity="1" xmlns:xlink="http://www.w3.org/1999/xlink" color-rendering="auto" color-interpolation="auto" text-rendering="auto" stroke="black" stroke-linecap="square" stroke-miterlimit="10" shape-rendering="auto" stroke-opacity="1" fill="black" stroke-dasharray="none" font-weight="normal" stroke-width="1" xmlns="http://www.w3.org/2000/svg" font-family="&apos;Dialog&apos;" font-style="normal" stroke-linejoin="miter" font-size="12" stroke-dashoffset="0" image-rendering="auto">
  <!--Unicode Character 'WHITE CHESS PAWN' (U+2659)-->
  <defs id="genericDefs" />
  <g>
    <g>
      <path d="M231.3281 415.5469 L56.6719 415.5469 L56.6719 405.7031 Q56.6719 368.4375 94.2188 360.5625 Q125.5781 313.4531 125.5781 279.2812 L125.5781 273.2344 L91.5469 273.2344 L91.5469 266.9062 Q91.5469 258.75 98.8594 251.1562 Q106.1719 243.5625 119.5312 238.6406 Q110.5312 227.9531 110.5312 214.7344 Q110.5312 201.0938 120.375 191.25 Q130.2188 181.4062 144 181.4062 Q157.7812 181.4062 167.625 191.25 Q177.4688 201.0938 177.4688 214.7344 Q177.4688 227.9531 168.4688 238.6406 Q181.8281 243.5625 189.1406 251.1562 Q196.4531 258.75 196.4531 266.9062 L196.4531 273.2344 L162.4219 273.2344 L162.4219 279.2812 Q162.4219 313.4531 193.7812 360.5625 Q231.3281 368.4375 231.3281 405.7031 L231.3281 415.5469 ZM187.7344 265.2188 Q185.9062 251.8594 157.2188 241.3125 Q169.3125 228.7969 169.3125 214.7344 Q169.3125 204.1875 161.9297 196.8047 Q154.5469 189.4219 144 189.4219 Q133.4531 189.4219 126.0703 196.875 Q118.6875 204.3281 118.6875 214.7344 Q118.6875 228.7969 130.7812 241.3125 Q102.0938 251.8594 100.2656 265.2188 L187.7344 265.2188 ZM223.1719 407.5312 Q223.1719 388.6875 214.9453 379.4766 Q206.7188 370.2656 187.7344 366.3281 Q154.4062 316.5469 154.4062 273.2344 L133.5938 273.2344 Q133.5938 316.5469 100.2656 366.3281 Q81.2812 370.2656 73.0547 379.4766 Q64.8281 388.6875 64.8281 407.5312 L223.1719 407.5312 Z" stroke="none" />
    </g>
  </g>
</svg>
