<?xml version="1.0"?>

<!DOCTYPE svg PUBLIC '-//W3C//DTD SVG 1.0//EN' 'http://www.w3.org/TR/2001/REC-SVG-20010904/DTD/svg10.dtd'>
<svg fill-opacity="1" xmlns:xlink="http://www.w3.org/1999/xlink" color-rendering="auto" color-interpolation="auto" text-rendering="auto" stroke="black" stroke-linecap="square" stroke-miterlimit="10" shape-rendering="auto" stroke-opacity="1" fill="black" stroke-dasharray="none" font-weight="normal" stroke-width="1" xmlns="http://www.w3.org/2000/svg" font-family="&apos;Dialog&apos;" font-style="normal" stroke-linejoin="miter" font-size="12" stroke-dashoffset="0" image-rendering="auto">
  <!--Unicode Character 'WHITE CHESS ROOK' (U+2656)-->
  <defs id="genericDefs" />
  <g>
    <g>
      <path d="M242.4375 418.3594 L44.2969 418.3594 L44.2969 382.0781 L64.2656 360.2812 L64.2656 346.0781 L88.1719 319.3594 L88.1719 255.9375 L61.3125 237.7969 L61.3125 182.5312 L99.1406 182.5312 L99.1406 208.125 L125.8594 208.125 L125.8594 182.5312 L161.0156 182.5312 L161.0156 208.125 L187.7344 208.125 L187.7344 182.5312 L225.5625 182.5312 L225.5625 237.7969 L198.7031 255.9375 L198.7031 319.3594 L222.6094 346.0781 L222.6094 360.2812 L242.4375 382.0781 L242.4375 418.3594 ZM217.4062 232.0312 L217.4062 190.5469 L195.8906 190.5469 L195.8906 216.2812 L152.8594 216.2812 L152.8594 190.5469 L133.875 190.5469 L133.875 216.2812 L90.9844 216.2812 L90.9844 190.5469 L69.4688 190.5469 L69.4688 232.0312 L217.4062 232.0312 ZM207.4219 240.4688 L79.4531 240.4688 L95.9062 251.1562 L190.9688 251.1562 L207.4219 240.4688 ZM190.6875 314.7188 L190.6875 259.1719 L96.1875 259.1719 L96.1875 314.7188 L190.6875 314.7188 ZM211.3594 345.5156 L191.25 322.7344 L95.625 322.7344 L75.5156 345.5156 L211.3594 345.5156 ZM233.0156 383.0625 L214.5938 363.0938 L214.5938 353.6719 L72.2812 353.6719 L72.2812 363.0938 L53.8594 383.0625 L233.0156 383.0625 ZM234.4219 410.3438 L234.4219 391.0781 L52.4531 391.0781 L52.4531 410.3438 L234.4219 410.3438 Z" stroke="none" />
    </g>
  </g>
</svg>
