<?xml version="1.0"?>

<!DOCTYPE svg PUBLIC '-//W3C//DTD SVG 1.0//EN' 'http://www.w3.org/TR/2001/REC-SVG-20010904/DTD/svg10.dtd'>
<svg fill-opacity="1" xmlns:xlink="http://www.w3.org/1999/xlink" color-rendering="auto" color-interpolation="auto" text-rendering="auto" stroke="black" stroke-linecap="square" stroke-miterlimit="10" shape-rendering="auto" stroke-opacity="1" fill="black" stroke-dasharray="none" font-weight="normal" stroke-width="1" xmlns="http://www.w3.org/2000/svg" font-family="&apos;Dialog&apos;" font-style="normal" stroke-linejoin="miter" font-size="12" stroke-dashoffset="0" image-rendering="auto">
  <!--Unicode Character 'WHITE CHESS KNIGHT' (U+2658)-->
  <defs id="genericDefs" />
  <g>
    <g>
      <path d="M262.6875 417.5156 L88.7344 417.5156 Q88.7344 391.2188 95.3438 377.1562 Q101.9531 363.0938 118.6875 353.3906 Q139.9219 341.1562 139.9219 322.4531 Q139.9219 318.2344 137.1094 313.875 Q129.6562 319.9219 97.3125 327.6562 Q86.0625 330.8906 83.5312 349.3125 Q82.125 358.0312 77.8359 362.8828 Q73.5469 367.7344 67.6406 367.7344 Q52.4531 367.7344 37.1953 355.4297 Q21.9375 343.125 21.9375 327.9375 Q21.9375 316.125 38.25 294.3281 Q50.0625 278.4375 53.2969 272.1094 Q56.5312 265.7812 57.6562 256.5 Q58.7812 246.375 60.1172 242.2266 Q61.4531 238.0781 66.2344 230.9062 Q72.5625 221.625 74.1797 215.0156 Q75.7969 208.4062 75.7969 197.0156 L75.7969 179.4375 Q89.0156 185.2031 101.3906 206.4375 L108.8438 206.1562 Q114.1875 196.7344 116.8594 176.4844 Q126.7031 180.9844 134.8594 193.5703 Q143.0156 206.1562 146.25 211.0781 Q206.7188 218.8125 234.7031 255.7266 Q262.6875 292.6406 262.6875 381.2344 L262.6875 417.5156 ZM248.2031 409.5 L248.2031 387 Q248.2031 297.5625 223.5938 261.7734 Q198.9844 225.9844 142.875 219.0938 Q139.6406 216.7031 134.0156 206.7188 Q126.5625 193.6406 121.7812 190.5469 Q118.5469 207.2812 118.125 210.5859 Q117.7031 213.8906 114.8203 219.6562 Q111.9375 225.4219 108.5625 225.4219 Q105.75 225.4219 105.75 221.2031 Q105.75 218.8125 106.875 215.4375 L88.4531 224.2969 L87.8906 221.2031 Q90.9844 216.5625 94.5 215.1562 Q94.5 205.4531 83.8125 195.4688 Q83.8125 211.2188 82.0547 217.8984 Q80.2969 224.5781 73.125 235.5469 Q68.7656 242.4375 67.6406 245.8125 Q66.5156 249.1875 65.6719 258.6094 Q65.1094 265.5 62.0859 272.0391 Q59.0625 278.5781 44.8594 298.9688 Q35.7188 312.0469 32.8359 317.3203 Q29.9531 322.5938 29.9531 327.375 Q29.9531 337.2188 36.8438 344.3906 Q43.7344 351.5625 47.8125 351.5625 Q49.9219 351.5625 53.4375 344.6719 Q59.7656 332.0156 63.7031 332.0156 Q68.4844 332.0156 68.4844 337.2188 Q68.4844 341.2969 64.5469 346.6406 Q60.6094 351.2812 57.9375 356.7656 Q61.875 359.7188 67.0781 359.7188 Q73.4062 359.7188 75.5156 348.1875 Q79.1719 324.8438 93.0938 320.7656 Q103.5 318.2344 114.5391 315 Q125.5781 311.7656 131.1328 308.6016 Q136.6875 305.4375 139.7109 301.9219 Q142.7344 298.4062 148.0781 287.7188 Q149.2031 288.5625 150.3281 289.6875 Q147.5156 298.2656 147.5156 305.0156 L148.0781 322.7344 Q148.0781 346.2188 123.6094 359.7188 Q110.3906 366.8906 104.2734 378.4219 Q98.1562 389.9531 98.1562 409.5 L248.2031 409.5 ZM103.6406 254.5312 Q98.2969 255.7969 94.7812 258.6094 Q95.3438 263.1094 95.3438 264.0938 Q95.3438 266.0625 90.4219 268.5938 L84.375 267.75 L83.25 269.5781 L83.25 275.625 Q76.6406 270.4219 76.6406 266.9062 Q76.6406 261.9844 84.0234 256.9922 Q91.4062 252 96.1875 252 L102.5156 252 L103.6406 254.5312 ZM48.9375 318.7969 Q47.8125 322.5938 44.5781 325.125 L48.6562 330.0469 Q48.6562 332.4375 46.9688 333.9844 Q45.2812 335.5312 43.1719 335.5312 Q38.8125 335.5312 38.8125 328.7812 Q38.8125 324.5625 41.6953 321.6797 Q44.5781 318.7969 48.9375 318.7969 Z" stroke="none" />
    </g>
  </g>
</svg>
