<?xml version="1.0"?>

<!DOCTYPE svg PUBLIC '-//W3C//DTD SVG 1.0//EN' 'http://www.w3.org/TR/2001/REC-SVG-20010904/DTD/svg10.dtd'>
<svg fill-opacity="1" xmlns:xlink="http://www.w3.org/1999/xlink" color-rendering="auto" color-interpolation="auto" text-rendering="auto" stroke="black" stroke-linecap="square" stroke-miterlimit="10" shape-rendering="auto" stroke-opacity="1" fill="black" stroke-dasharray="none" font-weight="normal" stroke-width="1" xmlns="http://www.w3.org/2000/svg" font-family="&apos;Dialog&apos;" font-style="normal" stroke-linejoin="miter" font-size="12" stroke-dashoffset="0" image-rendering="auto">
  <!--Unicode Character 'BLACK CHESS ROOK' (U+265C)-->
  <defs id="genericDefs" />
  <g>
    <g>
      <path d="M242.4375 418.3594 L44.2969 418.3594 L44.2969 382.0781 L64.2656 360.2812 L64.2656 346.0781 L88.1719 319.3594 L88.1719 255.9375 L61.3125 237.7969 L61.3125 182.5312 L99.1406 182.5312 L99.1406 208.125 L125.8594 208.125 L125.8594 182.5312 L161.0156 182.5312 L161.0156 208.125 L187.7344 208.125 L187.7344 182.5312 L225.5625 182.5312 L225.5625 237.7969 L198.7031 255.9375 L198.7031 319.3594 L222.6094 346.0781 L222.6094 360.2812 L242.4375 382.0781 L242.4375 418.3594 ZM217.4062 232.0312 L217.4062 216.2812 L69.4688 216.2812 L69.4688 232.0312 L217.4062 232.0312 ZM211.3594 345.5156 L196.1719 328.5 L90.7031 328.5 L75.5156 345.5156 L211.3594 345.5156 ZM233.0156 383.0625 L214.5938 363.0938 L72.2812 363.0938 L53.8594 383.0625 L233.0156 383.0625 Z" stroke="none" />
    </g>
  </g>
</svg>
